# xmcd CD database file
#
# Track frame offsets:
#	150
#	22912
#	44427
#	66077
#	80817
#	96327
#	116055
#	132407
#	156342
#	172157
#
# Disc length: 2645 seconds
#
# Revision: 0
# Processed by: cddbd v1.5.1PL0 Copyright (c) Steve Scherf et al.
# Submitted via: CDex 1.51
#
DISCID=8d0a530a
DTITLE=West 8th Street - on Castle Ave. Vol. III
DYEAR=1900
DGENRE=Jazz
TTITLE0=skylark
TTITLE1=east of the sun
TTITLE2=just one more chance
TTITLE3=rosetta
TTITLE4=soon
TTITLE5=makin´ whoopee
TTITLE6=aren´t you glad you are you
TTITLE7=midnight sun will never set
TTITLE8=lady is a tramp
TTITLE9=autumn in new york
EXTD=
EXTT0=
EXTT1=
EXTT2=
EXTT3=
EXTT4=
EXTT5=
EXTT6=
EXTT7=
EXTT8=
EXTT9=
PLAYORDER=
